<svg xmlns="http://www.w3.org/2000/svg" width="481pt" height="291pt" viewBox="0 0 481 291" version="1.1" xmlns:xlink="http://www.w3.org/1999/xlink">
  <g id="surface2" transform="matrix(1,0,0,1,0,0)" data-tpl_matrix="1,0,0,1,0,0">
    <path style="stroke:none;fill-rule:evenodd;fill:rgb(64.705882%,61.176471%,53.333333%);fill-opacity:1" d="M 240.351562 37.449219 C 234.148438 37.449219 228.066406 38.398438 222.101562 40.300781 C 202.832031 46.433594 183.515625 52.617188 164.148438 58.851562 C 144.816406 65.082031 125.683594 71.285156 106.75 77.449219 L 86.949219 83.851562 C 83.351562 85.050781 80.214844 86.867188 77.550781 89.300781 C 74.882812 91.765625 72.800781 94.667969 71.300781 98 C 69.832031 101.332031 69.082031 104.917969 69.050781 108.75 C 69.050781 132.050781 69.050781 155.367188 69.050781 178.699219 C 69.082031 182.566406 69.851562 186.183594 71.351562 189.550781 C 72.851562 192.917969 74.933594 195.832031 77.601562 198.300781 C 80.300781 200.765625 83.449219 202.601562 87.050781 203.800781 L 102.601562 208.800781 C 122.199219 215.167969 142 221.582031 162 228.050781 C 182.035156 234.515625 202.015625 240.933594 221.949219 247.300781 C 228.050781 249.234375 234.167969 250.199219 240.300781 250.199219 C 246.464844 250.234375 252.515625 249.316406 258.449219 247.449219 C 278.851562 240.984375 299.285156 234.433594 319.75 227.800781 C 340.214844 221.167969 360.464844 214.601562 380.5 208.101562 L 394.398438 203.550781 C 397.867188 202.417969 400.898438 200.632812 403.5 198.199219 C 406.132812 195.734375 408.183594 192.851562 409.648438 189.550781 C 411.117188 186.25 411.867188 182.734375 411.898438 179 C 411.933594 170.832031 411.933594 162.667969 411.898438 154.5 L 411.898438 109.351562 C 411.898438 105.214844 411.148438 101.449219 409.648438 98.050781 C 408.183594 94.617188 406.050781 91.667969 403.25 89.199219 C 400.484375 86.765625 397.132812 84.898438 393.199219 83.601562 C 381.632812 79.867188 370.066406 76.117188 358.5 72.351562 C 342.367188 67.117188 326.066406 61.851562 309.601562 56.550781 C 293.132812 51.214844 276.683594 45.917969 260.25 40.648438 C 253.582031 38.515625 246.949219 37.449219 240.351562 37.449219 M 240.601562 256.25 C 233.734375 256.214844 226.917969 255.132812 220.148438 253 C 200.183594 246.632812 180.199219 240.214844 160.199219 233.75 C 140.167969 227.285156 120.351562 220.867188 100.75 214.5 L 85.199219 209.5 C 80.765625 208.035156 76.898438 205.785156 73.601562 202.75 C 70.265625 199.714844 67.683594 196.132812 65.851562 192 C 64.015625 187.867188 63.082031 183.433594 63.050781 178.699219 C 63.050781 155.367188 63.050781 132.050781 63.050781 108.75 C 63.082031 104.015625 64.015625 99.617188 65.851562 95.550781 C 67.683594 91.449219 70.25 87.882812 73.550781 84.851562 C 76.851562 81.851562 80.699219 79.617188 85.101562 78.148438 L 104.898438 71.75 C 123.832031 65.582031 142.984375 59.382812 162.351562 53.148438 C 181.683594 46.882812 201 40.683594 220.300781 34.550781 C 227.035156 32.417969 233.917969 31.382812 240.949219 31.449219 C 247.984375 31.515625 255.035156 32.683594 262.101562 34.949219 C 278.5 40.214844 294.949219 45.515625 311.449219 50.851562 C 327.917969 56.148438 344.214844 61.417969 360.351562 66.648438 C 371.917969 70.417969 383.484375 74.167969 395.050781 77.898438 C 399.785156 79.433594 403.851562 81.734375 407.25 84.800781 C 410.648438 87.832031 413.265625 91.433594 415.101562 95.601562 C 416.964844 99.800781 417.898438 104.382812 417.898438 109.351562 L 417.898438 154.5 C 417.933594 162.699219 417.933594 170.867188 417.898438 179 C 417.867188 183.601562 416.933594 187.933594 415.101562 192 C 413.300781 196.066406 410.785156 199.617188 407.550781 202.648438 C 404.285156 205.648438 400.515625 207.867188 396.25 209.300781 L 382.351562 213.800781 C 362.316406 220.332031 342.066406 226.898438 321.601562 233.5 C 301.132812 240.132812 280.683594 246.683594 260.25 253.148438 C 253.816406 255.214844 247.265625 256.25 240.601562 256.25 "/>
    <path style="stroke:none;fill-rule:evenodd;fill:rgb(14.901961%,32.941176%,32.549020%);fill-opacity:1" d="M 405.050781 143.949219 C 405.050781 154.449219 405.050781 164.949219 405.050781 175.449219 C 405.015625 179.183594 404.234375 182.699219 402.699219 186 C 401.167969 189.300781 399.015625 192.183594 396.25 194.648438 C 393.484375 197.082031 390.25 198.898438 386.550781 200.101562 C 365.183594 206.699219 343.816406 213.300781 322.449219 219.898438 C 301.082031 226.464844 279.699219 233 258.300781 239.5 C 252.332031 241.265625 246.300781 242.132812 240.199219 242.101562 C 234.132812 242.066406 228.117188 241.148438 222.148438 239.351562 C 179.683594 226.382812 137.25 213.351562 94.851562 200.25 C 91.015625 199.050781 87.683594 197.214844 84.851562 194.75 C 82.015625 192.285156 79.832031 189.367188 78.300781 186 C 76.734375 182.667969 75.933594 179.066406 75.898438 175.199219 C 75.898438 154.234375 75.898438 133.285156 75.898438 112.351562 C 75.933594 108.550781 76.734375 104.984375 78.300781 101.648438 C 79.832031 98.316406 82.015625 95.417969 84.851562 92.949219 C 87.648438 90.484375 90.949219 88.648438 94.75 87.449219 C 137.25 74.316406 179.765625 61.285156 222.300781 48.351562 C 228.535156 46.449219 234.816406 45.550781 241.148438 45.648438 C 247.484375 45.75 253.765625 46.75 260 48.648438 C 301.832031 61.484375 343.648438 74.351562 385.449219 87.25 C 389.515625 88.515625 393.015625 90.382812 395.949219 92.851562 C 398.851562 95.316406 401.082031 98.265625 402.648438 101.699219 C 404.25 105.101562 405.050781 108.832031 405.050781 112.898438 C 405.050781 123.234375 405.050781 133.582031 405.050781 143.949219 "/>
    <path style="stroke:none;fill-rule:evenodd;fill:rgb(64.705882%,61.176471%,53.333333%);fill-opacity:1" d="M 388.800781 167.800781 L 244.449219 167.800781 L 240.5 163.851562 L 236.550781 167.800781 L 92.148438 167.800781 L 92.148438 169.148438 L 236.550781 169.148438 L 240.5 173.101562 L 244.449219 169.148438 L 388.800781 169.148438 L 388.800781 167.800781 "/>
    <path style="stroke:none;fill-rule:evenodd;fill:rgb(100.000000%,100.000000%,100.000000%);fill-opacity:1" d="M2.148438-6.445313L6.445313-6.445313L6.445313-4.296875L12.890625-4.296875L12.890625-12.890625L5.585938-12.890625L2.148438-16.328125L2.148438-26.640625L5.585938-30.078125L13.750000-30.078125L17.187500-26.640625L17.187500-23.632813L12.890625-23.632813L12.890625-25.781250L6.445313-25.781250L6.445313-17.187500L13.750000-17.187500L17.187500-13.750000L17.187500-3.437500L13.750000 0L5.585938 0L2.148438-3.437500L2.148438-6.445313ZM26.855469 0L26.855469-25.781250L21.484375-25.781250L21.484375-30.078125L36.523438-30.078125L36.523438-25.781250L31.152344-25.781250L31.152344 0L26.855469 0ZM40.820313-30.078125L45.117188-30.078125L45.117188-4.296875L51.562500-4.296875L51.562500-30.078125L55.859375-30.078125L55.859375-3.437500L52.421875 0L44.257813 0L40.820313-3.437500L40.820313-30.078125ZM60.156250 0L60.156250-30.078125L71.757813-30.078125L75.195313-26.640625L75.195313-16.328125L73.906250-15.039063L75.195313-13.750000L75.195313-3.437500L71.757813 0L60.156250 0M64.453125-17.187500L70.898438-17.187500L70.898438-25.781250L64.453125-25.781250L64.453125-17.187500M64.453125-4.296875L70.898438-4.296875L70.898438-12.890625L64.453125-12.890625L64.453125-4.296875ZM79.492188 0L79.492188-30.078125L91.093750-30.078125L94.531250-26.640625L94.531250-16.328125L93.242188-15.039063L94.531250-13.750000L94.531250-3.437500L91.093750 0L79.492188 0M83.789063-17.187500L90.234375-17.187500L90.234375-25.781250L83.789063-25.781250L83.789063-17.187500M83.789063-4.296875L90.234375-4.296875L90.234375-12.890625L83.789063-12.890625L83.789063-4.296875ZM98.828125 0L98.828125-30.078125L103.125000-30.078125L103.125000-4.296875L113.867188-4.296875L113.867188 0L98.828125 0ZM118.164063 0L118.164063-30.078125L133.203125-30.078125L133.203125-25.781250L122.460938-25.781250L122.460938-17.187500L128.906250-17.187500L128.906250-12.890625L122.460938-12.890625L122.460938-4.296875L133.203125-4.296875L133.203125 0L118.164063 0ZM137.500000 0L137.500000-30.078125L152.539063-30.078125L152.539063-25.781250L141.796875-25.781250L141.796875-17.187500L148.242188-17.187500L148.242188-12.890625L141.796875-12.890625L141.796875 0L137.500000 0ZM156.835938 0L156.835938-30.078125L161.132813-30.078125L161.132813 0L156.835938 0ZM165.429688 0L165.429688-30.078125L180.468750-30.078125L180.468750-25.781250L169.726563-25.781250L169.726563-17.187500L176.171875-17.187500L176.171875-12.890625L169.726563-12.890625L169.726563-4.296875L180.468750-4.296875L180.468750 0L165.429688 0ZM184.765625 0L184.765625-30.078125L189.062500-30.078125L189.062500-4.296875L199.804688-4.296875L199.804688 0L184.765625 0ZM204.101563 0L204.101563-30.078125L215.703125-30.078125L219.140625-26.640625L219.140625-3.437500L215.703125 0L204.101563 0M208.398438-4.296875L214.843750-4.296875L214.843750-25.781250L208.398438-25.781250L208.398438-4.296875ZM238.476563 0L238.476563-4.296875L240.625000-4.296875L240.625000-25.781250L238.476563-25.781250L238.476563-30.078125L255.664063-30.078125L255.664063-23.632813L251.367188-23.632813L251.367188-25.781250L244.921875-25.781250L244.921875-17.187500L251.367188-17.187500L251.367188-12.890625L244.921875-12.890625L244.921875-4.296875L247.070313-4.296875L247.070313 0L238.476563 0ZM259.960938 0L259.960938-30.078125L275-30.078125L275-25.781250L264.257813-25.781250L264.257813-17.187500L270.703125-17.187500L270.703125-12.890625L264.257813-12.890625L264.257813-4.296875L275-4.296875L275 0L259.960938 0ZM279.296875 0L279.296875-30.078125L283.593750-30.078125L292.187500-10.312500L292.187500-30.078125L296.484375-30.078125L296.484375 0L292.187500 0L283.593750-19.765625L283.593750 0L279.296875 0ZM304.218750 0L300.781250-3.437500L300.781250-26.640625L304.218750-30.078125L312.382813-30.078125L315.820313-26.640625L315.820313-21.484375L311.523438-21.484375L311.523438-25.781250L305.078125-25.781250L305.078125-4.296875L311.523438-4.296875L311.523438-8.593750L315.820313-8.593750L315.820313-3.437500L312.382813 0L304.218750 0ZM320.117188 0L320.117188-30.078125L335.156250-30.078125L335.156250-25.781250L324.414063-25.781250L324.414063-17.187500L330.859375-17.187500L330.859375-12.890625L324.414063-12.890625L324.414063-4.296875L335.156250-4.296875L335.156250 0L320.117188 0ZM357.929688 0L354.492188-3.437500L354.492188-26.640625L357.929688-30.078125L366.093750-30.078125L369.531250-26.640625L369.531250-21.484375L365.234375-21.484375L365.234375-25.781250L358.789063-25.781250L358.789063-4.296875L365.234375-4.296875L365.234375-8.593750L369.531250-8.593750L369.531250-3.437500L366.093750 0L357.929688 0ZM377.265625 0L373.828125-3.437500L373.828125-26.640625L377.265625-30.078125L385.429688-30.078125L388.867188-26.640625L388.867188-3.437500L385.429688 0L377.265625 0M378.125000-4.296875L384.570313-4.296875L384.570313-25.781250L378.125000-25.781250L378.125000-4.296875ZM393.164063 0L393.164063-4.296875L397.460938-4.296875L397.460938 0L393.164063 0Z" transform="matrix(0.7563636363636363,0,0,0.7563636363636363,89.98363636363638,143.60181818181817)" data-str-tmatrix="1,0,0,1,106.35,146.3" data-str-color="rgb(255,255,255)" data-str-text="Stubblefield Fence Co." data-str-default_text="Enter Text" data-str-fontsize="44" data-str-font_family="College Semi-condensed" data-str-hastextedit="true" data-str-fonticons="true" data-str-bold="false" data-str-italic="false" data-lyt_name="line_1"/>
  </g>
  <g id="surface4">
    <text style="fill:rgb(255,255,255)" font-family="Kelly Slab" font-size="20" transform="matrix(1,0,0,1,194.5,202.5)" xml:space="preserve"><![CDATA[Austin, TX]]></text>
  </g>
</svg>